<svg data-v-423bf9ae="" xmlns="http://www.w3.org/2000/svg" viewBox="0 0 649 90" class="iconLeft"><!----><!----><!----><g data-v-423bf9ae="" id="df3135ea-f61e-4a0b-b4cd-ecbce8e159be" fill="#ffffff" transform="matrix(5.8365760270947415,0,0,5.8365760270947415,104.04668979541208,-6.245136158813153)"><path d="M4.80 13.75L3.82 13.75L3.82 4.89L1.02 4.89L1.02 3.95L7.60 3.95L7.60 4.89L4.80 4.89L4.80 13.75ZM11.14 13.75L10.16 13.75L10.16 4.10L11.14 3.64L11.14 7.39L11.14 7.39Q11.80 6.43 13.08 6.43L13.08 6.43L13.08 6.43Q14.45 6.43 15.09 7.22L15.09 7.22L15.09 7.22Q15.72 8.02 15.72 9.79L15.72 9.79L15.72 13.75L14.74 13.75L14.74 9.38L14.74 9.38Q14.74 8.30 14.27 7.81L14.27 7.81L14.27 7.81Q13.79 7.31 12.99 7.31L12.99 7.31L12.99 7.31Q11.14 7.31 11.14 9.35L11.14 9.35L11.14 13.75ZM22.25 4.94L22.25 4.94L22.25 4.94Q22.06 5.12 21.78 5.12L21.78 5.12L21.78 5.12Q21.50 5.12 21.32 4.94L21.32 4.94L21.32 4.94Q21.14 4.76 21.14 4.48L21.14 4.48L21.14 4.48Q21.14 4.20 21.33 4.00L21.33 4.00L21.33 4.00Q21.52 3.81 21.78 3.81L21.78 3.81L21.78 3.81Q22.06 3.81 22.25 4.00L22.25 4.00L22.25 4.00Q22.43 4.20 22.43 4.48L22.43 4.48L22.43 4.48Q22.43 4.76 22.25 4.94ZM22.27 6.59L22.27 12.87L24.25 12.87L24.25 13.75L19.32 13.75L19.32 12.87L21.29 12.87L21.29 7.48L19.32 7.48L19.32 6.59L22.27 6.59ZM31.89 6.43L31.89 6.43L31.89 6.43Q32.91 6.43 33.40 6.75L33.40 6.75L33.40 9.14L32.41 9.14L32.41 7.48L32.41 7.48Q32.16 7.43 31.82 7.43L31.82 7.43L31.82 7.43Q30.76 7.43 29.93 7.97L29.93 7.97L29.93 7.97Q29.09 8.51 29.09 9.45L29.09 9.45L29.09 12.87L31.23 12.87L31.23 13.75L26.59 13.75L26.59 12.87L28.07 12.87L28.07 7.48L26.59 7.48L26.59 6.59L29.04 6.59L29.04 7.85L29.04 7.85Q29.44 7.21 30.27 6.82L30.27 6.82L30.27 6.82Q31.09 6.43 31.89 6.43ZM38.60 13.92L38.60 13.92L38.60 13.92Q37.18 13.92 36.37 12.90L36.37 12.90L36.37 12.90Q35.55 11.89 35.55 10.16L35.55 10.16L35.55 10.16Q35.55 8.41 36.37 7.42L36.37 7.42L36.37 7.42Q37.18 6.43 38.60 6.43L38.60 6.43L38.60 6.43Q39.76 6.43 40.60 7.10L40.60 7.10L40.60 4.13L41.58 3.64L41.58 13.75L40.60 13.75L40.60 13.13L40.60 13.13Q39.82 13.92 38.60 13.92ZM38.71 13.03L38.71 13.03L38.71 13.03Q39.98 13.03 40.60 11.91L40.60 11.91L40.60 8.34L40.60 8.34Q39.96 7.31 38.71 7.31L38.71 7.31L38.71 7.31Q37.67 7.31 37.12 8.05L37.12 8.05L37.12 8.05Q36.57 8.79 36.57 10.16L36.57 10.16L36.57 10.16Q36.57 11.40 37.16 12.22L37.16 12.22L37.16 12.22Q37.74 13.03 38.71 13.03ZM56.01 13.75L53.23 13.75L53.23 3.95L55.79 3.95L55.79 3.95Q57.37 3.95 58.08 4.68L58.08 4.68L58.08 4.68Q58.79 5.42 58.79 6.51L58.79 6.51L58.79 6.51Q58.79 7.24 58.37 7.78L58.37 7.78L58.37 7.78Q57.96 8.32 57.25 8.58L57.25 8.58L57.25 8.58Q58.09 8.79 58.61 9.42L58.61 9.42L58.61 9.42Q59.14 10.04 59.14 11.00L59.14 11.00L59.14 11.00Q59.14 12.17 58.40 12.96L58.40 12.96L58.40 12.96Q57.67 13.75 56.01 13.75L56.01 13.75ZM54.21 4.83L54.21 8.23L55.55 8.23L55.55 8.23Q56.69 8.23 57.28 7.76L57.28 7.76L57.28 7.76Q57.88 7.29 57.88 6.48L57.88 6.48L57.88 6.48Q57.88 4.83 55.87 4.83L55.87 4.83L54.21 4.83ZM54.21 9.09L54.21 12.87L56.18 12.87L56.18 12.87Q57.29 12.87 57.76 12.36L57.76 12.36L57.76 12.36Q58.23 11.86 58.23 11.09L58.23 11.09L58.23 11.09Q58.23 9.09 55.72 9.09L55.72 9.09L54.21 9.09ZM67.08 12.92L67.08 12.92L67.08 12.92Q66.18 13.92 64.68 13.92L64.68 13.92L64.68 13.92Q63.18 13.92 62.28 12.93L62.28 12.93L62.28 12.93Q61.38 11.94 61.38 10.18L61.38 10.18L61.38 10.18Q61.38 8.43 62.28 7.43L62.28 7.43L62.28 7.43Q63.18 6.43 64.68 6.43L64.68 6.43L64.68 6.43Q66.18 6.43 67.08 7.41L67.08 7.41L67.08 7.41Q67.98 8.40 67.98 10.16L67.98 10.16L67.98 10.16Q67.98 11.91 67.08 12.92ZM64.68 13.03L64.68 13.03L64.68 13.03Q65.76 13.03 66.36 12.27L66.36 12.27L66.36 12.27Q66.96 11.51 66.96 10.16L66.96 10.16L66.96 10.16Q66.96 8.81 66.37 8.06L66.37 8.06L66.37 8.06Q65.79 7.31 64.68 7.31L64.68 7.31L64.68 7.31Q63.56 7.31 62.98 8.04L62.98 8.04L62.98 8.04Q62.40 8.78 62.40 10.18L62.40 10.18L62.40 10.18Q62.40 11.54 62.99 12.29L62.99 12.29L62.99 12.29Q63.57 13.03 64.68 13.03ZM72.86 13.92L72.86 13.92L72.86 13.92Q71.69 13.92 71.02 13.29L71.02 13.29L71.02 13.29Q70.34 12.67 70.34 11.49L70.34 11.49L70.34 11.49Q70.34 10.33 71.11 9.73L71.11 9.73L71.11 9.73Q71.88 9.13 73.02 9.13L73.02 9.13L73.02 9.13Q74.10 9.13 75.04 9.63L75.04 9.63L75.04 9.03L75.04 9.03Q75.04 7.28 73.47 7.28L73.47 7.28L73.47 7.28Q72.42 7.28 71.20 8.05L71.20 8.05L70.92 7.21L70.92 7.21Q72.23 6.43 73.57 6.43L73.57 6.43L73.57 6.43Q74.00 6.43 74.38 6.53L74.38 6.53L74.38 6.53Q74.76 6.64 75.13 6.90L75.13 6.90L75.13 6.90Q75.50 7.15 75.73 7.67L75.73 7.67L75.73 7.67Q75.95 8.18 75.95 8.90L75.95 8.90L75.95 13.75L75.04 13.75L75.04 13.05L75.04 13.05Q74.07 13.92 72.86 13.92ZM72.95 13.06L72.95 13.06L72.95 13.06Q74.14 13.06 75.04 11.96L75.04 11.96L75.04 10.57L75.04 10.57Q74.16 9.98 73.12 9.98L73.12 9.98L73.12 9.98Q72.31 9.98 71.78 10.37L71.78 10.37L71.78 10.37Q71.25 10.75 71.25 11.49L71.25 11.49L71.25 11.49Q71.25 12.21 71.69 12.64L71.69 12.64L71.69 12.64Q72.14 13.06 72.95 13.06ZM83.64 6.43L83.64 6.43L83.64 6.43Q84.66 6.43 85.15 6.75L85.15 6.75L85.15 9.14L84.15 9.14L84.15 7.48L84.15 7.48Q83.90 7.43 83.57 7.43L83.57 7.43L83.57 7.43Q82.50 7.43 81.67 7.97L81.67 7.97L81.67 7.97Q80.84 8.51 80.84 9.45L80.84 9.45L80.84 12.87L82.98 12.87L82.98 13.75L78.33 13.75L78.33 12.87L79.81 12.87L79.81 7.48L78.33 7.48L78.33 6.59L80.78 6.59L80.78 7.85L80.78 7.85Q81.19 7.21 82.01 6.82L82.01 6.82L82.01 6.82Q82.84 6.43 83.64 6.43ZM90.34 13.92L90.34 13.92L90.34 13.92Q88.93 13.92 88.11 12.90L88.11 12.90L88.11 12.90Q87.29 11.89 87.29 10.16L87.29 10.16L87.29 10.16Q87.29 8.41 88.11 7.42L88.11 7.42L88.11 7.42Q88.93 6.43 90.34 6.43L90.34 6.43L90.34 6.43Q91.50 6.43 92.34 7.10L92.34 7.10L92.34 4.13L93.32 3.64L93.32 13.75L92.34 13.75L92.34 13.13L92.34 13.13Q91.56 13.92 90.34 13.92ZM90.45 13.03L90.45 13.03L90.45 13.03Q91.73 13.03 92.34 11.91L92.34 11.91L92.34 8.34L92.34 8.34Q91.70 7.31 90.45 7.31L90.45 7.31L90.45 7.31Q89.42 7.31 88.86 8.05L88.86 8.05L88.86 8.05Q88.31 8.79 88.31 10.16L88.31 10.16L88.31 10.16Q88.31 11.40 88.90 12.22L88.90 12.22L88.90 12.22Q89.49 13.03 90.45 13.03Z"></path></g><!----><g data-v-423bf9ae="" id="7ca4cbd2-be9c-44d0-bd45-873f489abd44" transform="matrix(2.8125,0,0,2.8125,0,0)" stroke="none" fill="#ffffff"><path d="M11.579 32H32L21.789 14.314z"></path><circle cx="8.683" cy="8.683" r="8.683"></circle></g><!----></svg>